<svg width="24" height="24" viewBox="0 0 24 24" fill="none" xmlns="http://www.w3.org/2000/svg">
<path d="M21.75 16.25H3.75C3.34 16.25 3 16.59 3 17C3 17.41 3.34 17.75 3.75 17.75H21.75C22.16 17.75 22.5 17.41 22.5 17C22.5 16.59 22.16 16.25 21.75 16.25Z" fill="#292D32"/>
<path d="M21.75 11.25H9.75C9.34 11.25 9 11.59 9 12C9 12.41 9.34 12.75 9.75 12.75H21.75C22.16 12.75 22.5 12.41 22.5 12C22.5 11.59 22.16 11.25 21.75 11.25Z" fill="#292D32"/>
<path d="M21.75 6.25H17.75C17.34 6.25 17 6.59 17 7C17 7.41 17.34 7.75 17.75 7.75H21.75C22.16 7.75 22.5 7.41 22.5 7C22.5 6.59 22.16 6.25 21.75 6.25Z" fill="#292D32"/>
</svg>
